<?xml version="1.0" encoding="utf-8"?>
<!-- Generator: Adobe Illustrator 16.0.0, SVG Export Plug-In . SVG Version: 6.00 Build 0)  -->
<!DOCTYPE svg PUBLIC "-//W3C//DTD SVG 1.1//EN" "http://www.w3.org/Graphics/SVG/1.1/DTD/svg11.dtd">
<svg version="1.1" id="Capa_1" xmlns="http://www.w3.org/2000/svg" xmlns:xlink="http://www.w3.org/1999/xlink" x="0px" y="0px"
	 width="172.75px" height="172.958px" viewBox="0 0 172.75 172.958" enable-background="new 0 0 172.75 172.958"
	 xml:space="preserve">
<g>
	<path fill="#FFFFFF" stroke="#00427A" stroke-width="4" stroke-miterlimit="10" d="M171.171,150.927
		c0,11.089-8.988,20.079-20.08,20.079H22.251c-11.09,0-20.08-8.99-20.08-20.079V22.086c0-11.089,8.99-20.08,20.08-20.08h128.84
		c11.092,0,20.08,8.991,20.08,20.08V150.927z"/>
	<path fill="#FFFFFF" stroke="#00427A" stroke-width="4" stroke-miterlimit="10" d="M137.142,151.957
		c0,6.008,4.871,10.879,10.877,10.879l0,0c6.008,0,10.881-4.871,10.881-10.879l0,0c0-6.008-4.873-10.878-10.881-10.878l0,0
		C142.013,141.078,137.142,145.949,137.142,151.957L137.142,151.957z"/>
	<path fill="#FFFFFF" stroke="#00427A" stroke-width="4" stroke-miterlimit="10" d="M13.173,26.538
		c0,6.008,4.871,10.879,10.879,10.879l0,0c6.008,0,10.879-4.871,10.879-10.879l0,0c0-6.008-4.871-10.878-10.879-10.878l0,0
		C18.044,15.66,13.173,20.53,13.173,26.538L13.173,26.538z"/>
</g>
<g>
	<g>
		<path fill="#00A651" d="M98.334,48.64c0,6.525-5.292,11.817-11.818,11.818c-6.52,0-11.812-5.292-11.812-11.818
			c0-6.52,5.292-11.812,11.812-11.812C93.042,36.828,98.334,42.12,98.334,48.64L98.334,48.64z"/>
		<path fill="#00A651" d="M49.181,67.83c-0.133-0.539-0.579-0.862-1.157-1.054c-0.58-0.19-1.298-0.278-2.086-0.278
			c-1.776,0-2.559,0.318-2.559,0.88c0,2.328,14.134,0.886,14.134,6.525c0,3.596-4.748,5.338-11.505,5.338
			c-6.485,0-10.724-2.391-10.892-5.188h7.719c0.167,0.556,0.648,0.967,1.326,1.228c0.653,0.255,1.505,0.383,2.293,0.383
			c2.009,0,3.341-0.406,3.341-1.142c0-2.345-14.135-0.729-14.135-6.647c0-3.294,4.512-4.95,10.654-4.95
			c6.826,0,9.937,2.195,10.515,4.904H49.181z"/>
		<polygon fill="#00A651" points="61.235,78.831 61.235,63.33 81.275,63.33 81.275,66.949 69.29,66.949 69.29,69.167 79.435,69.167 
			79.435,72.78 69.29,72.78 69.29,75.211 81.756,75.211 81.756,78.831 		"/>
		<polygon fill="#00A651" points="101.97,71.79 101.663,68.263 101.663,63.33 109.375,63.33 109.375,78.831 101.83,78.831 
			93.053,70.394 93.365,73.921 93.365,78.831 85.647,78.831 85.647,63.33 93.191,63.33 		"/>
		<path fill="#00A651" d="M112.108,78.831l8.807-15.501h8.193l8.812,15.5h-8.025l-0.955-2.044l-8.025,0l-0.921,2.044H112.108z
			 M124.945,68.002L124.945,68.002l-2.496,5.553h5.09L124.945,68.002z"/>
		<polygon fill="#00A651" points="139.711,82.206 90.447,82.207 119.121,133.132 125.443,127.625 102.503,89.317 139.941,89.224 		
			"/>
		<polygon fill="#00A651" points="33.327,82.207 82.59,82.207 53.911,133.132 47.588,127.626 70.529,89.317 33.096,89.225 		"/>
		<polygon fill="#00A651" points="59.4,137.22 86.29,90.828 113.943,136.769 106.643,140.063 86.904,104.777 65.892,140.486 		"/>
	</g>
</g>
</svg>
