<?xml version="1.0" encoding="utf-8"?>
<!-- Generator: Adobe Illustrator 16.0.0, SVG Export Plug-In . SVG Version: 6.00 Build 0)  -->
<!DOCTYPE svg PUBLIC "-//W3C//DTD SVG 1.1//EN" "http://www.w3.org/Graphics/SVG/1.1/DTD/svg11.dtd">
<svg version="1.1" id="Capa_1" xmlns="http://www.w3.org/2000/svg" xmlns:xlink="http://www.w3.org/1999/xlink" x="0px" y="0px"
	 width="172.75px" height="172.958px" viewBox="0 0 172.75 172.958" enable-background="new 0 0 172.75 172.958"
	 xml:space="preserve">
<g>
	<path fill="#FFFFFF" stroke="#00427A" stroke-width="4" stroke-miterlimit="10" d="M171.171,150.927
		c0,11.089-8.988,20.079-20.08,20.079H22.251c-11.09,0-20.08-8.99-20.08-20.079V22.086c0-11.089,8.99-20.08,20.08-20.08h128.84
		c11.092,0,20.08,8.991,20.08,20.08V150.927z"/>
	<path fill="#FFFFFF" stroke="#00427A" stroke-width="4" stroke-miterlimit="10" d="M137.142,151.957
		c0,6.008,4.871,10.879,10.877,10.879l0,0c6.008,0,10.881-4.871,10.881-10.879l0,0c0-6.008-4.873-10.878-10.881-10.878l0,0
		C142.013,141.078,137.142,145.949,137.142,151.957L137.142,151.957z"/>
	<path fill="#FFFFFF" stroke="#00427A" stroke-width="4" stroke-miterlimit="10" d="M13.173,26.538
		c0,6.008,4.871,10.879,10.879,10.879l0,0c6.008,0,10.879-4.871,10.879-10.879l0,0c0-6.008-4.871-10.878-10.879-10.878l0,0
		C18.044,15.66,13.173,20.53,13.173,26.538L13.173,26.538z"/>
</g>
<g>
	<g>
		<g>
			<polygon fill="#00427A" points="50.155,86.705 63.5,80.152 63.5,66.032 49.975,58.883 37.107,66.092 37.107,80.152 			"/>
			<polygon fill="#00427A" points="78.593,86.705 91.938,80.152 91.938,66.032 78.414,58.883 65.545,66.092 65.545,80.152 			"/>
			<polygon fill="#00427A" points="63.977,63.987 77.322,57.434 77.322,43.314 63.797,36.165 50.929,43.373 50.929,57.434 			"/>
		</g>
		<g>
			<polygon fill="#0067BD" points="50.155,132.793 63.5,126.241 63.5,112.121 49.975,104.972 37.107,112.181 37.107,126.241 			"/>
			<polygon fill="#0067BD" points="78.593,132.793 91.938,126.242 91.938,112.121 78.414,104.972 65.545,112.181 65.545,126.241 			
				"/>
			<polygon fill="#0067BD" points="63.977,110.075 77.322,103.521 77.322,89.402 63.797,82.252 50.929,89.461 50.929,103.521 			"/>
		</g>
		<g>
			<polygon fill="#00A651" points="93.859,110.544 107.204,103.991 107.204,89.871 93.68,82.722 80.812,89.931 80.812,103.991 			
				"/>
			<polygon fill="#00A651" points="122.298,110.544 135.643,103.992 135.643,89.873 122.118,82.722 109.25,89.931 109.25,103.991 
							"/>
			<polygon fill="#00A651" points="107.681,87.826 121.026,81.273 121.026,67.153 107.501,60.003 94.633,67.212 94.633,81.273 			
				"/>
		</g>
	</g>
</g>
</svg>
