<?xml version="1.0" encoding="utf-8"?>
<!-- Generator: Adobe Illustrator 16.0.0, SVG Export Plug-In . SVG Version: 6.00 Build 0)  -->
<!DOCTYPE svg PUBLIC "-//W3C//DTD SVG 1.1//EN" "http://www.w3.org/Graphics/SVG/1.1/DTD/svg11.dtd">
<svg version="1.1" id="Capa_1" xmlns="http://www.w3.org/2000/svg" xmlns:xlink="http://www.w3.org/1999/xlink" x="0px" y="0px"
	 width="172.75px" height="172.958px" viewBox="0 0 172.75 172.958" enable-background="new 0 0 172.75 172.958"
	 xml:space="preserve">
<g>
	<path fill="#FFFFFF" stroke="#00427A" stroke-width="4" stroke-miterlimit="10" d="M171.171,150.927
		c0,11.089-8.988,20.079-20.08,20.079H22.251c-11.09,0-20.08-8.99-20.08-20.079V22.086c0-11.089,8.99-20.08,20.08-20.08h128.84
		c11.092,0,20.08,8.991,20.08,20.08V150.927z"/>
	<path fill="#FFFFFF" stroke="#00427A" stroke-width="4" stroke-miterlimit="10" d="M137.142,151.957
		c0,6.008,4.871,10.879,10.877,10.879l0,0c6.008,0,10.881-4.871,10.881-10.879l0,0c0-6.008-4.873-10.878-10.881-10.878l0,0
		C142.013,141.078,137.142,145.949,137.142,151.957L137.142,151.957z"/>
	<path fill="#FFFFFF" stroke="#00427A" stroke-width="4" stroke-miterlimit="10" d="M13.173,26.538
		c0,6.008,4.871,10.879,10.879,10.879l0,0c6.008,0,10.879-4.871,10.879-10.879l0,0c0-6.008-4.871-10.878-10.879-10.878l0,0
		C18.044,15.66,13.173,20.53,13.173,26.538L13.173,26.538z"/>
</g>
<g>
	<g>
		<g>
			<path fill="#00A651" d="M130.703,88.005c5.957-9.084,7.293-17.509,3.699-23.719c-3.263-5.628-10.227-8.728-19.632-8.728
				c-1.298,0-2.664,0.06-4.067,0.187c-4.688-10.006-11.526-16.254-19.236-16.255c-4.329,0-8.33,1.997-11.874,5.463
				c-0.378-0.116-0.747-0.232-1.144-0.232c-2.334,0-4.223,1.89-4.223,4.222c0,0.766,0.231,1.446,0.591,2.056
				c-0.93,1.47-1.812,3.028-2.605,4.756c-1.415-0.138-2.771-0.196-4.078-0.196c-9.395,0-16.368,3.1-19.633,8.728
				c-3.583,6.209-2.256,14.634,3.71,23.719c0.252,0.35,0.533,0.69,0.756,1.037c-3.875,5.56-6.103,11.091-6.394,16.098
				c-1.104,0.756-1.878,1.977-1.878,3.449c0,1.985,1.395,3.58,3.234,4.028c0.204,0.427,0.349,0.862,0.571,1.259
				c3.265,5.618,10.238,8.717,19.633,8.717c1.299,0,2.663-0.058,4.068-0.184c4.688,10.012,11.526,16.263,19.265,16.263
				c7.72,0,14.548-6.25,19.236-16.263c1.403,0.126,2.76,0.184,4.067,0.184c4.339,0,8.126-0.677,11.303-1.938
				c0.649,0.379,1.337,0.64,2.111,0.64c2.344,0,4.224-1.899,4.224-4.233c0-0.183-0.059-0.329-0.097-0.503
				c0.813-0.833,1.52-1.705,2.091-2.683c3.865-6.692,1.86-15.739-4.464-24.834C130.17,88.696,130.452,88.346,130.703,88.005
				L130.703,88.005z M114.771,59.794c7.826,0,13.511,2.354,15.962,6.612c2.721,4.719,1.472,11.499-3.487,19.093
				c-3.021-3.671-6.702-7.306-11.021-10.731c-0.805-5.436-2.093-10.425-3.778-14.877C113.229,59.87,114.044,59.794,114.771,59.794
				L114.771,59.794z M116.959,80.994c2.926,2.656,5.521,5.375,7.671,8.098c-2.208,2.799-4.765,5.519-7.68,8.135
				c0.213-2.644,0.348-5.345,0.348-8.146C117.298,86.324,117.163,83.621,116.959,80.994L116.959,80.994z M111.196,71.048
				c-2.16-1.522-4.406-2.976-6.809-4.349c-2.402-1.386-4.823-2.605-7.245-3.759c3.749-1.211,7.41-2.083,10.896-2.586
				C109.314,63.571,110.383,67.184,111.196,71.048L111.196,71.048z M106.208,56.306c-4.736,0.814-9.743,2.23-14.771,4.195
				c-4.997-1.967-10.006-3.383-14.742-4.176c0.572-1.104,1.153-2.15,1.754-3.13c2.363,0,4.242-1.896,4.242-4.252
				c0-0.308-0.106-0.6-0.193-0.92c2.741-2.722,5.781-4.29,8.969-4.29C97.104,43.735,102.314,48.586,106.208,56.306L106.208,56.306z
				 M74.865,60.354c3.487,0.504,7.148,1.375,10.896,2.597c-2.421,1.143-4.842,2.363-7.235,3.737
				c-2.401,1.375-4.648,2.837-6.809,4.351C72.521,67.183,73.597,63.57,74.865,60.354L74.865,60.354z M52.183,66.407
				c2.439-4.26,8.126-6.613,15.951-6.613c0.727,0,1.55,0.076,2.324,0.114c-1.685,4.436-2.974,9.425-3.776,14.859
				c-4.32,3.437-8,7.06-11.013,10.742C50.699,77.905,49.45,71.125,52.183,66.407L52.183,66.407z M65.955,97.227
				c-2.916-2.617-5.473-5.337-7.682-8.116c2.15-2.742,4.757-5.461,7.672-8.117c-0.203,2.626-0.329,5.318-0.329,8.087
				C65.616,91.881,65.742,94.594,65.955,97.227L65.955,97.227z M68.134,118.362c-7.825,0-13.512-2.354-15.951-6.605
				c-0.078-0.106-0.097-0.232-0.165-0.34c0.717-0.745,1.143-1.742,1.143-2.827c0-1.637-0.959-2.993-2.275-3.71
				c0.328-3.729,1.994-7.904,4.852-12.214c3.041,3.729,6.723,7.352,10.945,10.712c0.803,5.435,2.092,10.442,3.776,14.868
				C69.684,118.293,68.86,118.362,68.134,118.362L68.134,118.362z M71.718,107.107c2.16,1.531,4.445,2.993,6.809,4.358
				c2.394,1.385,4.814,2.606,7.235,3.73c-3.748,1.239-7.409,2.111-10.896,2.615C73.587,114.574,72.521,110.972,71.718,107.107
				L71.718,107.107z M91.467,134.43c-5.666,0-10.877-4.853-14.771-12.602c4.736-0.784,9.745-2.228,14.742-4.173
				c5.027,1.954,10.034,3.39,14.778,4.174C102.324,129.579,97.104,134.431,91.467,134.43L91.467,134.43z M108.039,117.811
				c-3.486-0.503-7.147-1.376-10.896-2.615c2.431-1.124,4.843-2.344,7.245-3.729c2.353-1.366,4.64-2.828,6.809-4.359
				C110.383,110.972,109.314,114.575,108.039,117.811L108.039,117.811z M112.242,77.072c0.543,3.855,0.833,7.855,0.833,12.01
				c0,4.156-0.29,8.186-0.843,12.021c-3.09,2.383-6.402,4.639-9.977,6.692l0,0c-3.564,2.063-7.176,3.808-10.818,5.298
				c-3.612-1.491-7.226-3.234-10.79-5.298c-3.564-2.054-6.887-4.303-9.977-6.683c-0.541-3.846-0.842-7.874-0.842-12.03
				c0-4.145,0.301-8.155,0.842-12.01c3.042-2.373,6.394-4.648,9.977-6.724c3.564-2.042,7.178-3.794,10.79-5.288 M130.732,111.757
				c-0.291,0.483-0.61,0.949-0.979,1.385c-0.484-0.194-1.027-0.33-1.56-0.33c-2.306,0-4.154,1.839-4.232,4.114
				c-2.547,0.923-5.637,1.443-9.191,1.443c-0.736,0-1.541-0.076-2.325-0.113c1.696-4.437,2.974-9.444,3.778-14.878
				c4.231-3.36,7.903-6.982,10.944-10.712C131.963,99.921,133.551,106.866,130.732,111.757L130.732,111.757z M130.732,111.757"/>
		</g>
		<path fill="#00A651" d="M91.438,80.607c-4.669,0-8.456,3.786-8.456,8.475s3.787,8.476,8.456,8.476
			c4.697,0.001,8.494-3.787,8.494-8.476S96.135,80.608,91.438,80.607L91.438,80.607z M91.438,80.607"/>
	</g>
</g>
</svg>
