<?xml version="1.0" encoding="utf-8"?>
<!-- Generator: Adobe Illustrator 16.0.0, SVG Export Plug-In . SVG Version: 6.00 Build 0)  -->
<!DOCTYPE svg PUBLIC "-//W3C//DTD SVG 1.1//EN" "http://www.w3.org/Graphics/SVG/1.1/DTD/svg11.dtd">
<svg version="1.1" id="Capa_1" xmlns="http://www.w3.org/2000/svg" xmlns:xlink="http://www.w3.org/1999/xlink" x="0px" y="0px"
	 width="172.75px" height="172.958px" viewBox="0 0 172.75 172.958" enable-background="new 0 0 172.75 172.958"
	 xml:space="preserve">
<g>
	<path fill="#FFFFFF" stroke="#00427A" stroke-width="4" stroke-miterlimit="10" d="M171.171,150.927
		c0,11.089-8.988,20.079-20.08,20.079H22.251c-11.09,0-20.08-8.99-20.08-20.079V22.086c0-11.089,8.99-20.08,20.08-20.08h128.84
		c11.092,0,20.08,8.991,20.08,20.08V150.927z"/>
	<path fill="#FFFFFF" stroke="#00427A" stroke-width="4" stroke-miterlimit="10" d="M137.142,151.957
		c0,6.008,4.871,10.879,10.877,10.879l0,0c6.008,0,10.881-4.871,10.881-10.879l0,0c0-6.008-4.873-10.878-10.881-10.878l0,0
		C142.013,141.078,137.142,145.949,137.142,151.957L137.142,151.957z"/>
	<path fill="#FFFFFF" stroke="#00427A" stroke-width="4" stroke-miterlimit="10" d="M13.173,26.538
		c0,6.008,4.871,10.879,10.879,10.879l0,0c6.008,0,10.879-4.871,10.879-10.879l0,0c0-6.008-4.871-10.878-10.879-10.878l0,0
		C18.044,15.66,13.173,20.53,13.173,26.538L13.173,26.538z"/>
</g>
<g>
	<path fill="#00A651" d="M66.978,82.731l-0.004,0c2.637-1.442,5.006-3.526,6.848-6.204c6.007-8.737,4.138-20.454-4.175-26.169
		c-8.312-5.717-19.922-3.268-25.93,5.469c-6.008,8.736-4.138,20.453,4.175,26.168c2.592,1.782,5.503,2.77,8.466,3.022l4.988,9.652
		C61.346,94.67,60.135,88.936,66.978,82.731z"/>
	<path fill="#00A651" d="M101.931,76.388l0.001,0.004c0.403-2.979,1.502-5.936,3.343-8.614c6.008-8.737,17.616-11.186,25.929-5.47
		c8.313,5.716,10.182,17.432,4.175,26.169c-6.008,8.736-17.616,11.186-25.93,5.471c-2.591-1.783-4.556-4.148-5.852-6.824
		l-10.798-1.203C92.799,85.921,98.587,84.999,101.931,76.388z"/>
	<polygon fill="#00427A" points="39.506,138.789 37.863,135.911 119.547,17.786 122.004,19.487 	"/>
	<polygon fill="#00427A" points="46.736,142.527 43.807,141.762 126.306,22.46 128.761,24.158 	"/>
	
		<rect x="80.136" y="8.101" transform="matrix(0.8224 0.5689 -0.5689 0.8224 60.5932 -32.8468)" fill="#00547A" width="5.538" height="145.046"/>
	<path fill="#EDDFD0" d="M39.379,138.699c0,0,2.861-1.608,3.553-0.802s2.118,1.316,1.06,3.291c0.423,0.02,2.107-0.937,2.823-0.498
		c0.716,0.442,0.263,1.594,0.263,1.594l-16.191,14.182l6.978-20.554C37.863,135.911,40.747,134.808,39.379,138.699z"/>
	<path d="M33.414,149.017l-2.528,7.448l5.874-5.133C36.76,151.332,36.066,148.731,33.414,149.017z"/>
	<rect x="115.65" y="20.088" transform="matrix(0.824 0.5666 -0.5666 0.824 35.6319 -64.2919)" width="11.309" height="10.242"/>
	<path fill="#FFFFFF" d="M117.592,83.432l-8.887-0.164l0.026-1.44c2.457-4.752,7.559-4.941,7.627-8.618
		c0.029-1.592-0.978-2.52-2.72-2.552c-1.972-0.036-3.023,1.537-3.275,2.916l-1.341-0.329c0.471-1.887,1.625-3.818,4.676-3.762
		c2.235,0.041,4.146,1.365,4.102,3.715c-0.076,4.169-6.086,5.197-7.633,8.922l7.446,0.137L117.592,83.432z"/>
	<path fill="#FFFFFF" d="M53.31,71.636c1.63,2.268,3.67,3.696,5.946,3.732c3.214,0.052,5.18-1.554,5.222-4.162
		c0.049-3.062-1.738-4.942-6.107-5.012l-2.152-0.035l0.029-1.879l1.304,0.021c4.368,0.07,6.27-1.295,6.312-3.994
		c0.036-2.215-1.854-3.637-3.945-3.672c-2.669-0.042-3.84,1.09-5.324,2.948l-1.771-1.243c1.519-2.039,3.606-3.644,7.125-3.586
		c3.882,0.062,6.274,2.103,6.22,5.561c-0.042,2.637-1.763,4.158-3.474,4.797c3.437,1.389,4.125,3.887,4.093,5.889
		c-0.06,3.729-2.982,6.323-7.562,6.249c-4.185-0.066-6.691-2.715-7.694-4.43L53.31,71.636z"/>
	
		<rect x="127.401" y="69.416" transform="matrix(0.9998 0.0185 -0.0185 0.9998 1.4298 -2.3601)" fill="#FFFFFF" width="1.689" height="13.333"/>
	
		<rect x="127.518" y="69.236" transform="matrix(0.0181 -0.9998 0.9998 0.0181 50.0901 202.8102)" fill="#FFFFFF" width="1.566" height="13.334"/>
</g>
</svg>
