<?xml version="1.0" encoding="utf-8"?>
<!-- Generator: Adobe Illustrator 16.0.0, SVG Export Plug-In . SVG Version: 6.00 Build 0)  -->
<!DOCTYPE svg PUBLIC "-//W3C//DTD SVG 1.1//EN" "http://www.w3.org/Graphics/SVG/1.1/DTD/svg11.dtd">
<svg version="1.1" id="Capa_1" xmlns="http://www.w3.org/2000/svg" xmlns:xlink="http://www.w3.org/1999/xlink" x="0px" y="0px"
	 width="172.75px" height="172.958px" viewBox="0 0 172.75 172.958" enable-background="new 0 0 172.75 172.958"
	 xml:space="preserve">
<g>
	<path fill="#FFFFFF" stroke="#00427A" stroke-width="4" stroke-miterlimit="10" d="M171.171,150.927
		c0,11.089-8.988,20.079-20.08,20.079H22.251c-11.09,0-20.08-8.99-20.08-20.079V22.086c0-11.089,8.99-20.08,20.08-20.08h128.84
		c11.092,0,20.08,8.991,20.08,20.08V150.927z"/>
	<path fill="#FFFFFF" stroke="#00427A" stroke-width="4" stroke-miterlimit="10" d="M137.142,151.957
		c0,6.008,4.871,10.879,10.877,10.879l0,0c6.008,0,10.881-4.871,10.881-10.879l0,0c0-6.008-4.873-10.878-10.881-10.878l0,0
		C142.013,141.078,137.142,145.949,137.142,151.957L137.142,151.957z"/>
	<path fill="#FFFFFF" stroke="#00427A" stroke-width="4" stroke-miterlimit="10" d="M13.173,26.538
		c0,6.008,4.871,10.879,10.879,10.879l0,0c6.008,0,10.879-4.871,10.879-10.879l0,0c0-6.008-4.871-10.878-10.879-10.878l0,0
		C18.044,15.66,13.173,20.53,13.173,26.538L13.173,26.538z"/>
</g>
<g>
	<g>
		<path fill="#00A651" d="M123.857,15.799c0,0-1.432,10.292-12.456,19.429C100.374,44.362,72.971,53.6,54.752,76.165
			c-18.216,22.561-9.363,44.726-4.69,51.348c2.682,3.801,6.745,4.7,9.726,4.771c-1.104-5.188-1.803-10.939-1.505-16.923
			c2.396-23.995,21.194-39.159,24.197-41.982c1.637-1.458,4.689-3.889,8.393-6.582c3.8-2.645,7.806-5.646,11.475-9.139
			c7.368-6.692,13.281-13.439,13.265-13.439c0.014,0-5.023,7.419-11.713,14.985c-3.204,3.821-7.271,7.591-10.729,10.484
			c-3.425,2.997-6.213,5.564-7.782,6.966c-1.534,1.426-6.476,5.721-11.202,12.655c-2.386,3.523-4.561,7.479-6.663,12.3
			c-2.042,4.166-3.043,9.051-3.09,13.975c-0.076,8.595,2.254,16.996,4.664,23.503c3.236,1.677,8.327,2.225,16.291-0.745
			c6.35-3.521,11.81-7.542,16.514-11.925l-7.521-9.909l14.062,3.026c4.696-5.592,8.392-11.606,11.28-17.818l-13.666-4.121
			l17.098-4.44c2.99-8.684,4.611-17.556,5.349-26.045l-13.579,2.36l-0.139,0.057l0.082-0.048l-1.479,0.258l15.55-10.325
			C129.63,35.191,123.857,15.799,123.857,15.799z"/>
	</g>
</g>
</svg>
