<?xml version="1.0" encoding="utf-8"?>
<!-- Generator: Adobe Illustrator 16.0.0, SVG Export Plug-In . SVG Version: 6.00 Build 0)  -->
<!DOCTYPE svg PUBLIC "-//W3C//DTD SVG 1.1//EN" "http://www.w3.org/Graphics/SVG/1.1/DTD/svg11.dtd">
<svg version="1.1" id="Capa_1" xmlns="http://www.w3.org/2000/svg" xmlns:xlink="http://www.w3.org/1999/xlink" x="0px" y="0px"
	 width="172.75px" height="172.958px" viewBox="0 0 172.75 172.958" enable-background="new 0 0 172.75 172.958"
	 xml:space="preserve">
<g>
	<path fill="#FFFFFF" stroke="#00427A" stroke-width="4" stroke-miterlimit="10" d="M171.171,150.927
		c0,11.089-8.988,20.079-20.08,20.079H22.251c-11.09,0-20.08-8.99-20.08-20.079V22.086c0-11.089,8.99-20.08,20.08-20.08h128.84
		c11.092,0,20.08,8.991,20.08,20.08V150.927z"/>
	<path fill="#FFFFFF" stroke="#00427A" stroke-width="4" stroke-miterlimit="10" d="M137.142,151.957
		c0,6.008,4.871,10.879,10.877,10.879l0,0c6.008,0,10.881-4.871,10.881-10.879l0,0c0-6.008-4.873-10.878-10.881-10.878l0,0
		C142.013,141.078,137.142,145.949,137.142,151.957L137.142,151.957z"/>
	<path fill="#FFFFFF" stroke="#00427A" stroke-width="4" stroke-miterlimit="10" d="M13.173,26.538
		c0,6.008,4.871,10.879,10.879,10.879l0,0c6.008,0,10.879-4.871,10.879-10.879l0,0c0-6.008-4.871-10.878-10.879-10.878l0,0
		C18.044,15.66,13.173,20.53,13.173,26.538L13.173,26.538z"/>
</g>
<g>
	<g>
		<path fill="#005399" d="M80.811,129.311c-0.701,1.679-3.146,2.254-5.465,1.286l-16.793-7.01c-2.32-0.969-3.629-3.111-2.928-4.79
			l0,0c0.699-1.678,3.145-2.253,5.465-1.285l16.793,7.01C80.201,125.49,81.512,127.632,80.811,129.311L80.811,129.311z"/>
		<path fill="#005399" d="M78.115,135.767c-0.697,1.673-3.145,2.254-5.465,1.286l-16.793-7.01c-2.318-0.969-3.627-3.117-2.928-4.79
			l0,0c0.699-1.678,3.146-2.258,5.467-1.29l16.793,7.01C77.508,131.941,78.816,134.089,78.115,135.767L78.115,135.767z"/>
		<path fill="#005399" d="M70.414,140.127c-0.701,1.677-2.4,2.563-3.795,1.982l-10.111-4.221c-1.395-0.582-1.961-2.414-1.26-4.092
			l0,0c0.699-1.68,2.4-2.565,3.795-1.983l10.111,4.221C70.549,136.615,71.115,138.448,70.414,140.127L70.414,140.127z"/>
		<path fill="#005399" d="M110.322,24.589l0.027-0.065c0,0-0.715-0.266-1.08-0.412c-0.352-0.152,1.08,0.412-1.018-0.464
			l-0.027,0.063C55.184,3.149,46.168,60.626,55.072,79.37c9.018,18.993,1.676,35.037,1.676,35.037l12.594,5.257l2.1,0.876
			l11.6,4.841c0,0,5.74-16.711,25.586-23.655C128.205,94.879,162.221,47.885,110.322,24.589z M115.48,83.586
			c19.111-20.682,0.627-44.317,0.627-44.317C149.562,60.003,115.48,83.586,115.48,83.586z"/>
	</g>
</g>
</svg>
