<?xml version="1.0" encoding="utf-8"?>
<!-- Generator: Adobe Illustrator 16.0.0, SVG Export Plug-In . SVG Version: 6.00 Build 0)  -->
<!DOCTYPE svg PUBLIC "-//W3C//DTD SVG 1.1//EN" "http://www.w3.org/Graphics/SVG/1.1/DTD/svg11.dtd">
<svg version="1.1" id="Capa_1" xmlns="http://www.w3.org/2000/svg" xmlns:xlink="http://www.w3.org/1999/xlink" x="0px" y="0px"
	 width="172.75px" height="172.958px" viewBox="0 0 172.75 172.958" enable-background="new 0 0 172.75 172.958"
	 xml:space="preserve">
<g>
	<path fill="#FFFFFF" stroke="#00427A" stroke-width="4" stroke-miterlimit="10" d="M171.171,150.927
		c0,11.089-8.988,20.079-20.08,20.079H22.251c-11.09,0-20.08-8.99-20.08-20.079V22.086c0-11.089,8.99-20.08,20.08-20.08h128.84
		c11.092,0,20.08,8.991,20.08,20.08V150.927z"/>
	<path fill="#FFFFFF" stroke="#00427A" stroke-width="4" stroke-miterlimit="10" d="M137.142,151.957
		c0,6.008,4.871,10.879,10.877,10.879l0,0c6.008,0,10.881-4.871,10.881-10.879l0,0c0-6.008-4.873-10.878-10.881-10.878l0,0
		C142.013,141.078,137.142,145.949,137.142,151.957L137.142,151.957z"/>
	<path fill="#FFFFFF" stroke="#00427A" stroke-width="4" stroke-miterlimit="10" d="M13.173,26.538
		c0,6.008,4.871,10.879,10.879,10.879l0,0c6.008,0,10.879-4.871,10.879-10.879l0,0c0-6.008-4.871-10.878-10.879-10.878l0,0
		C18.044,15.66,13.173,20.53,13.173,26.538L13.173,26.538z"/>
</g>
<g>
	<polygon fill="#00427A" points="105.008,127.438 116.291,121.025 118.219,117.953 127.467,110.412 157.967,85.683 158.021,86.328 
		118.824,118.134 116.764,121.357 105.109,127.934 	"/>
	<path fill="#00427A" d="M117.418,117.118l0.801,0.835l39.748-32.271L105.949,39.53l-3.047,2.419l0.416,0.378l1.344-1.055
		L155.375,86.7c0,0,0.238,0.146-0.016,0.382c0,0-1.871,1.69-6.381,4.833c-4.506,3.144-12.809,8.679-12.809,8.679
		S124.322,107.742,117.418,117.118z"/>
	<polygon fill="#00427A" points="115.258,119.974 116.291,121.025 118.219,117.953 117.418,117.118 	"/>
	<path fill="#00427A" d="M102.711,124.501c0,0,1.41,1.617,2.299,2.966l11.281-6.442l-0.998-1.102c0,0-1.359,1.687-1.412,2.032
		c-0.051,0.344-0.273,0.102-0.344-0.054l-7.729,4.373c0,0-0.242,0.26-0.48,0.069C105.086,126.155,102.967,124.277,102.711,124.501z"
		/>
	<polygon fill="#00427A" points="53.627,146.844 53.803,145.99 68.049,140.302 86.547,132.907 103.939,125.943 105.008,127.438 
		105.189,127.874 104.094,128.527 102.883,127.074 	"/>
	<path fill="#00427A" d="M58.801,143.391l0.145,0.534l44.979-17.967l-1.26-1.609c0,0-3.531-1.782-13.99,2.836
		c-9.633,4.251-10.285,7.049-20.135,11.81C58.689,143.755,58.801,143.391,58.801,143.391z"/>
	<polygon fill="#005299" points="53.803,145.99 53.627,146.844 12.854,83.636 12.902,82.715 	"/>
	<path fill="#00427A" d="M58.801,143.391l-2.035,0.818c0,0-0.109,0.199-0.51-0.419c-0.398-0.617-40.012-60.944-40.012-60.944
		s-0.199-0.271-0.035-0.434c0.164-0.165,0.52-0.643,0.52-0.643l-3.826,0.945l-0.02,0.059l40.92,63.215l5.143-2.065L58.801,143.391z"
		/>
	<linearGradient id="SVGID_2_" gradientUnits="userSpaceOnUse" x1="56.6436" y1="131.7412" x2="113.5371" y2="131.7412">
		<stop  offset="0.4505" style="stop-color:#C9CAD0"/>
		<stop  offset="0.8626" style="stop-color:#C2C3C8"/>
	</linearGradient>
	<path fill="url(#SVGID_2_)" d="M56.777,144.021c0,0-0.23,0.218-0.086,0.218c0.146,0,2.242-0.849,2.242-0.849
		s2.496-0.908,5.064-2.204c0,0,6.527-3.041,8.176-4.045c1.646-1.006,2.75-1.514,5.572-3.562c0,0,3.586-2.546,4.943-3.319
		c1.355-0.775,4.711-2.629,7.836-3.828c0,0,3.332-1.417,6.748-2.072c3.416-0.653,5.062-0.121,5.354,0.025
		c0.291,0.145,0.922,0.545,2.762,2.01c0,0,0.17,0.061,0.389-0.061c0.219-0.12,7.76-4.434,7.76-4.434s-0.795-0.798-2.006-1.307
		c-1.211-0.51-10.684-1.806-15.082-1.187c-4.398,0.617-12.393,3.415-22.352,9.847c-9.955,6.434-10.863,7.632-10.863,7.632
		L56.777,144.021z"/>
	<linearGradient id="SVGID_3_" gradientUnits="userSpaceOnUse" x1="32.4863" y1="119.6978" x2="90.4844" y2="85.0298">
		<stop  offset="0.1209" style="stop-color:#F3F4FB"/>
		<stop  offset="0.2395" style="stop-color:#E2E3E9"/>
		<stop  offset="0.4767" style="stop-color:#B7B7BB"/>
		<stop  offset="0.8075" style="stop-color:#717172"/>
		<stop  offset="0.8626" style="stop-color:#656565"/>
	</linearGradient>
	<path fill="url(#SVGID_3_)" d="M112.875,121.186c0,0-2.762-5.886-10.611-6.504c-7.85-0.617-17.951,3.562-22.168,5.96
		c-4.217,2.4-7.014,4.324-11.883,8.067L27.365,72.151c0,0-3.09,1.539-5.814,4.155l41.828,60.254l0.072,0.116
		c0,0,6.361-4.77,12.9-8.768c6.541-3.996,14.756-7.958,21.041-8.577c6.289-0.616,12.648,0.983,12.648,0.983s2.232,0.193,3.496,1.586
		L112.875,121.186z"/>
	<path fill="#F9FAFF" d="M63.451,136.677l-6.83,7.533c0,0-0.07-0.028-0.146-0.111c-0.08-0.08-0.355-0.499-0.355-0.499L16.252,82.877
		c0,0-0.236-0.254-0.031-0.49c0.205-0.236,0.496-0.593,0.496-0.593s3.125-4.216,4.834-5.488L63.451,136.677z"/>
	<linearGradient id="SVGID_4_" gradientUnits="userSpaceOnUse" x1="33.1318" y1="126.5972" x2="102.759" y2="69.9069">
		<stop  offset="0.5824" style="stop-color:#FFFFFF"/>
		<stop  offset="1" style="stop-color:#B3B3B9"/>
	</linearGradient>
	<path fill="url(#SVGID_4_)" d="M113.348,121.695c0,0-1.289-2.288-2.926-3.997L68.664,70.063c0,0-3.867-6.732-11.016-9.082
		c-7.146-2.349-15.02,0.122-15.359,0.293c0,0-4.652,1.355-8.771,4.603c0,0-3.898,3.029-6.152,6.274l40.848,56.558
		c0,0,7.268-5.608,10.635-7.304c0,0,5.814-3.464,12.455-5.305c6.637-1.843,13.832-2.472,18.508,1.5c0,0,2.061,1.552,3.076,3.685
		L113.348,121.695z"/>
	<linearGradient id="SVGID_5_" gradientUnits="userSpaceOnUse" x1="137.8076" y1="57.4448" x2="97.6835" y2="91.8991">
		<stop  offset="0.1923" style="stop-color:#DCDDE5"/>
		<stop  offset="0.2026" style="stop-color:#D9DAE2"/>
		<stop  offset="0.3195" style="stop-color:#C0C0C7"/>
		<stop  offset="0.4465" style="stop-color:#ACACB2"/>
		<stop  offset="0.5871" style="stop-color:#9E9EA3"/>
		<stop  offset="0.752" style="stop-color:#96969A"/>
		<stop  offset="1" style="stop-color:#939397"/>
	</linearGradient>
	<path fill="url(#SVGID_5_)" d="M113.857,121.842l1.436-1.918l2.125-2.709c0,0,4.578-5.839,8.092-8.674c0,0,5.863-4.99,9.859-7.438
		l7.393-4.894c0,0,6.104-4.142,7.801-5.379c0,0,3.143-2.221,4.842-3.775c0,0,0.227-0.164,0-0.39
		c-0.229-0.228-50.742-45.392-50.742-45.392l-1.344,1.055l47.92,43.44c0,0-6.838,1.372-16.426,9.786
		c-9.109,7.995-14.729,14.584-19.525,23.645L113.857,121.842z"/>
	<linearGradient id="SVGID_6_" gradientUnits="userSpaceOnUse" x1="132.166" y1="48.8164" x2="101.9307" y2="107.8333">
		<stop  offset="0.0769" style="stop-color:#FDFDFF"/>
		<stop  offset="0.1549" style="stop-color:#F7F7F9"/>
		<stop  offset="0.2611" style="stop-color:#E5E5E7"/>
		<stop  offset="0.3836" style="stop-color:#C9C9CB"/>
		<stop  offset="0.5173" style="stop-color:#A1A1A3"/>
		<stop  offset="0.5769" style="stop-color:#8D8D8F"/>
	</linearGradient>
	<path fill="url(#SVGID_6_)" d="M144.748,84.339c0,0-7.342,2.325-16.791,12.573c-9.449,10.248-14.1,24.93-14.1,24.93
		s4.941-9.049,8.904-14.028c3.959-4.978,16.727-18.072,28.477-22.045L102.902,41.95l-2.42-1.875l-2.324,0.944L144.748,84.339z"/>
	<linearGradient id="SVGID_7_" gradientUnits="userSpaceOnUse" x1="119.4512" y1="58.3867" x2="83.9816" y2="96.7637">
		<stop  offset="0.1044" style="stop-color:#FFFFFF"/>
		<stop  offset="0.2861" style="stop-color:#FCFCFC"/>
		<stop  offset="0.4201" style="stop-color:#F3F3F3"/>
		<stop  offset="0.5388" style="stop-color:#E3E3E3"/>
		<stop  offset="0.6486" style="stop-color:#CCCCCD"/>
		<stop  offset="0.7524" style="stop-color:#AFAFB0"/>
		<stop  offset="0.8502" style="stop-color:#8C8C8D"/>
		<stop  offset="0.9011" style="stop-color:#767678"/>
	</linearGradient>
	<path fill="url(#SVGID_7_)" d="M113.348,121.695l0.436,0.412c0,0,1.938-5.33,3.975-9.593c0,0,5.426-11.871,12.549-17.977
		c0,0,8.043-7.801,14.441-10.198l-46.59-43.321l-5.234-3.997c0,0-8.891,0.581-15.48,9.449c-6.59,8.867-8.576,20.933-8.795,23.331
		l41.283,47.316C109.932,117.118,113.057,120.607,113.348,121.695z"/>
</g>
</svg>
