<?xml version="1.0" encoding="utf-8"?>
<!-- Generator: Adobe Illustrator 16.0.0, SVG Export Plug-In . SVG Version: 6.00 Build 0)  -->
<!DOCTYPE svg PUBLIC "-//W3C//DTD SVG 1.1//EN" "http://www.w3.org/Graphics/SVG/1.1/DTD/svg11.dtd">
<svg version="1.1" id="Capa_1" xmlns="http://www.w3.org/2000/svg" xmlns:xlink="http://www.w3.org/1999/xlink" x="0px" y="0px"
	 width="172.75px" height="172.958px" viewBox="0 0 172.75 172.958" enable-background="new 0 0 172.75 172.958"
	 xml:space="preserve">
<g>
	<path fill="#FFFFFF" stroke="#00427A" stroke-width="4" stroke-miterlimit="10" d="M171.171,150.927
		c0,11.089-8.988,20.079-20.08,20.079H22.251c-11.09,0-20.08-8.99-20.08-20.079V22.086c0-11.089,8.99-20.08,20.08-20.08h128.84
		c11.092,0,20.08,8.991,20.08,20.08V150.927z"/>
	<path fill="#FFFFFF" stroke="#00427A" stroke-width="4" stroke-miterlimit="10" d="M137.142,151.957
		c0,6.008,4.871,10.879,10.877,10.879l0,0c6.008,0,10.881-4.871,10.881-10.879l0,0c0-6.008-4.873-10.878-10.881-10.878l0,0
		C142.013,141.078,137.142,145.949,137.142,151.957L137.142,151.957z"/>
	<path fill="#FFFFFF" stroke="#00427A" stroke-width="4" stroke-miterlimit="10" d="M13.173,26.538
		c0,6.008,4.871,10.879,10.879,10.879l0,0c6.008,0,10.879-4.871,10.879-10.879l0,0c0-6.008-4.871-10.878-10.879-10.878l0,0
		C18.044,15.66,13.173,20.53,13.173,26.538L13.173,26.538z"/>
</g>
<g>
	<g>
		<path fill="#00427A" d="M70.111,96.234L65,105.642c-0.232,0.543-0.93,1.474-2.672,1.474c-2.129,0-5.693-1.357-7.977-2.325
			l-0.465,0.967l-3.484-1.586l0.465-0.968c-3.061-1.548-6.816-3.756-7.514-5.692l-0.271-1.046l0.271-0.735l3.912-10.07
			c-4.027,2.519-7.514,8.094-11.85,16.953l-4.957,10.464c-0.426,0.93-0.852,1.859-1.316,2.789l29.662,13.746
			c0.426-0.977,0.852-1.897,1.277-2.827l4.764-10.542C68.795,107.191,70.77,100.949,70.111,96.234L70.111,96.234z M60.586,119.119
			l-3.68,8.016L32.24,115.71l3.678-7.977c1.086-2.246,3.795-3.446,7.203-3.446c2.557,0,5.539,0.657,8.443,2.014
			C58.379,109.477,62.445,115.208,60.586,119.119L60.586,119.119z M58.648,115.556c0.389,1.046,0.389,1.926,0.039,2.711
			l-2.787,6.079l-20.871-9.679l2.826-6.081c0.619-1.354,2.594-2.167,5.266-2.167c2.324,0,5.035,0.656,7.553,1.818
			C54.621,110.049,57.643,112.846,58.648,115.556L58.648,115.556z M64.264,86.398c0.736,0.308,1.512,0.503,2.285,0.541
			c0.117,0.776,0.156,1.511,0.076,2.325c2.209,1.354,3.525,2.478,3.293,2.942l-6.814,12.506c-0.389,0.854-4.648-0.347-9.605-2.592
			c-4.877-2.287-8.557-4.803-8.17-5.616l5.113-13.32c0.232-0.465,1.934-0.194,4.336,0.579c1.51-1.549,3.484-2.363,5.459-2.363
			c0.156,0.697,0.35,1.385,0.775,2.17c-1.316-0.232-2.711,0.154-3.873,1.046c1.162,0.424,2.439,0.967,3.756,1.586
			c1.318,0.619,2.518,1.2,3.641,1.819c-0.039-0.541-0.076-1.084-0.232-1.625C64.303,86.398,64.303,86.398,64.264,86.398
			L64.264,86.398z M114.912,88.528c-0.27,1.625,0.078,4.646,0.775,6.117l17.426,37.832c0.852,1.897,1.896,4.105,0.387,6.506
			c-0.891,1.395-2.479,2.246-4.145,2.246c-2.904,0-4.219-2.208-5.303-3.989l-21.531-36.206l-5.855,11.852
			c-1.346,2.788-4.057,6.735-6.148,8.981l-11.732,12.662c-1.51,1.627-2.711,2.905-4.957,2.905c-1.857,0-3.602-1.084-4.414-2.749
			c-1.355-2.864,0.311-4.956,1.781-6.778l11.578-14.364c1.238-1.511,2.865-4.687,3.445-6.584l4.299-15.024
			c0.619-2.206,1.355-6.157,1.512-8.44l1.896-23.075c-9.371,3.093-18.549,15.364-21.646,20.479c-1.316,2.17-2.439,3.989-5.229,4.027
			h-0.037c-1.703,0-3.291-0.93-4.182-2.438c-1.434-2.44-0.387-4.338,0.852-6.546c0.697-1.276,18.043-31.83,41.434-30.008
			c10.066,0.856,13.32,8.436,15.449,13.477c0.465,1.155,0.969,2.316,1.51,3.33l13.359,24.083c1.24,2.324,0.504,5.306-1.781,6.662
			c-2.246,1.316-5.111,0.695-6.506-1.511l-9.951-15.871L114.912,88.528z M120.721,31.682c1.008,6.115-3.137,11.884-9.254,12.857
			c-6.117,1.013-11.889-3.131-12.855-9.259c-1.008-6.076,3.098-11.844,9.217-12.847C113.945,21.422,119.715,25.566,120.721,31.682
			L120.721,31.682z M120.721,31.682"/>
	</g>
</g>
</svg>
